<?xml version="1.0" standalone="no"?>
<!DOCTYPE svg PUBLIC "-//W3C//DTD SVG 20010904//EN"
 "http://www.w3.org/TR/2001/REC-SVG-20010904/DTD/svg10.dtd">
<svg version="1.0" xmlns="http://www.w3.org/2000/svg"
 width="1080.000000pt" height="1080.000000pt" viewBox="0 0 1080.000000 1080.000000"
 preserveAspectRatio="xMidYMid meet">

<g transform="translate(0.000000,1080.000000) scale(0.100000,-0.100000)"
fill="#000000" stroke="none">
<path d="M0 5400 l0 -5400 5400 0 5400 0 0 5400 0 5400 -5400 0 -5400 0 0
-5400z m5517 2684 c106 -51 157 -175 121 -296 -15 -51 -77 -121 -131 -147 -94
-45 -229 -16 -295 65 -32 38 -62 116 -62 159 0 45 31 123 66 163 77 90 185
110 301 56z m296 -815 c5 -9 7 -28 3 -42 -5 -22 -18 -29 -104 -56 -108 -33
-172 -73 -199 -123 -17 -31 -18 -96 -21 -1071 l-2 -1038 22 6 c80 22 174 81
248 155 134 134 181 216 495 865 173 360 306 541 475 650 167 108 391 145 501
83 70 -39 89 -146 36 -196 -38 -36 -96 -53 -211 -62 -173 -14 -284 -56 -386
-147 -144 -127 -221 -252 -400 -648 -45 -99 -99 -213 -120 -253 l-38 -73 117
-117 c65 -64 145 -155 178 -202 155 -216 290 -519 388 -870 147 -525 263 -739
456 -841 50 -27 63 -38 61 -54 -9 -52 -72 -85 -162 -85 -105 0 -185 50 -255
160 -75 118 -125 247 -231 600 -99 328 -155 491 -167 487 -15 -5 -82 -162
-160 -377 -88 -239 -122 -319 -167 -388 -45 -71 -89 -107 -152 -123 -39 -11
-52 -10 -90 4 -38 15 -68 47 -68 71 0 2 25 16 55 30 116 57 204 193 299 461
70 196 113 300 167 402 27 50 49 97 49 104 0 20 -99 210 -154 294 -53 82 -186
245 -227 279 -22 19 -23 19 -46 -10 -158 -191 -286 -284 -452 -330 l-61 -17 0
-651 c0 -445 4 -664 11 -691 20 -72 89 -117 242 -160 61 -18 83 -41 73 -80 -3
-12 -16 -25 -28 -29 -41 -11 -778 -7 -799 4 -20 11 -26 54 -11 78 5 7 41 21
81 32 128 36 197 81 220 143 7 19 11 246 11 691 l0 663 -82 31 c-46 17 -112
50 -148 74 -80 51 -192 163 -249 247 l-43 63 -31 -28 c-67 -60 -171 -172 -225
-244 -62 -81 -199 -311 -209 -348 -4 -17 13 -61 55 -150 34 -70 91 -210 128
-312 110 -308 192 -438 309 -496 62 -30 70 -51 29 -83 -62 -49 -161 -34 -231
35 -48 49 -114 173 -167 319 -82 222 -160 422 -181 465 l-23 45 -17 -40 c-9
-22 -66 -175 -127 -340 -172 -468 -229 -585 -333 -691 -67 -68 -125 -94 -209
-94 -115 1 -220 100 -138 131 150 57 261 173 368 389 58 116 83 177 155 389
200 582 420 931 738 1171 l34 26 -20 39 c-21 41 -38 85 -168 415 -43 107 -93
226 -112 265 -93 185 -211 320 -341 388 -83 43 -118 53 -257 73 -161 23 -215
60 -215 149 0 89 63 135 183 135 166 0 322 -67 455 -195 153 -146 262 -341
443 -795 176 -442 268 -613 403 -746 66 -65 176 -134 213 -134 11 0 13 175 13
1024 0 700 -3 1034 -11 1053 -24 65 -84 106 -209 143 -41 13 -81 27 -87 33
-14 10 -18 69 -6 80 4 4 191 6 416 5 362 -3 411 -5 420 -19z"/>
</g>
</svg>
